<svg xmlns="http://www.w3.org/2000/svg" xmlns:xlink="http://www.w3.org/1999/xlink" width="211.67" height="160.14" viewBox="0 0 211.67 160.14"><defs><style>.cls-1{fill:none;}.cls-2{fill:#4e4e50;}.cls-3{clip-path:url(#clip-path);}.cls-4{fill:url(#linear-gradient);}.cls-5{clip-path:url(#clip-path-2);}.cls-6{fill:url(#linear-gradient-2);}.cls-7{clip-path:url(#clip-path-3);}.cls-8{fill:url(#linear-gradient-3);}.cls-9{clip-path:url(#clip-path-4);}.cls-10{fill:url(#linear-gradient-4);}.cls-11{clip-path:url(#clip-path-5);}.cls-12{fill:url(#linear-gradient-5);}.cls-13{clip-path:url(#clip-path-6);}.cls-14{fill:url(#linear-gradient-6);}.cls-15{clip-path:url(#clip-path-7);}.cls-16{fill:url(#linear-gradient-7);}.cls-17{clip-path:url(#clip-path-8);}.cls-18{fill:url(#linear-gradient-8);}</style><clipPath id="clip-path"><path class="cls-1" d="M195.53,63.22h7.64V48.77l-15.79-6.42a46.41,46.41,0,0,1,8.15,20.77"/></clipPath><linearGradient id="linear-gradient" x1="-334.25" y1="2829.61" x2="-333.96" y2="2829.61" gradientTransform="matrix(71.97, -33.55, -33.49, -71.83, 119011.39, 192079.05)" gradientUnits="userSpaceOnUse"><stop offset="0" stop-color="#a59e34"/><stop offset="0.3" stop-color="#a59e34"/><stop offset="0.41" stop-color="#b7bc4c"/><stop offset="0.65" stop-color="#c8dc62"/></linearGradient><clipPath id="clip-path-2"><path class="cls-1" d="M151,95.19c-14.61-1.22-26.58-12.07-26.58-27a28.35,28.35,0,0,1,26.35-28c17-1,27,13.17,27,28,0,14-4.75,27.12-23.11,27.12a26,26,0,0,1-3.53,0M46.17,68c0-15.4,10.79-29.53,26.74-28.31,14.86,1.09,29.6,14.45,28.09,29.76A28.45,28.45,0,0,1,72.82,96.22c-15,0-26.65-11.88-26.65-28.19M38,42.35,31.6,45,41.68,96.34c7.9,7.07,19.26,11.62,35,9.38a63,63,0,0,0,36.05-18.17,63,63,0,0,0,36.07,18.17,50.44,50.44,0,0,0,15.8,0l1.54-.32a38.75,38.75,0,0,0,24-16.31c4.17-6.1,5.77-15.54,5.26-25.87-.22-5.27-.71-13.68-5.39-20.1a26.06,26.06,0,0,0-9.63-7.92A47.92,47.92,0,0,0,161.57,31H63.67c-2.19,0-16.92.42-25.68,11.4"/></clipPath><linearGradient id="linear-gradient-2" x1="-347.15" y1="2807.14" x2="-346.86" y2="2807.14" gradientTransform="matrix(66.38, 339.31, 580.36, -113.55, -1605988.09, 436558.58)" gradientUnits="userSpaceOnUse"><stop offset="0" stop-color="#c1ce32"/><stop offset="0.32" stop-color="#c3d02f"/><stop offset="0.44" stop-color="#c9d42e"/><stop offset="0.53" stop-color="#d7e02e"/><stop offset="0.54" stop-color="#d7e02f"/><stop offset="0.61" stop-color="#d3da2b"/><stop offset="0.71" stop-color="#c5c831"/><stop offset="0.83" stop-color="#adaa35"/><stop offset="0.87" stop-color="#a59e34"/></linearGradient><clipPath id="clip-path-3"><path class="cls-1" d="M101.06,69.41C99.52,85.21,87.9,96.15,72.88,96.15a27.48,27.48,0,0,1-7.22-1c-3.21.8-5.3,1.76-5.72,3.21-.64,2.37,5.27,6.1,10.53,7.9a38.66,38.66,0,0,0,6.17-.55,63.73,63.73,0,0,0,35.3-17.43A54.3,54.3,0,0,1,101,68.55v.86"/></clipPath><linearGradient id="linear-gradient-3" x1="-44.68" y1="84.66" x2="-13.24" y2="84.67" gradientTransform="matrix(0.87, -0.5, -0.5, -0.87, 80.64, 183.3)" gradientUnits="userSpaceOnUse"><stop offset="0" stop-color="#e3eba3"/><stop offset="0.01" stop-color="#e0e999"/><stop offset="0.04" stop-color="#dae584"/><stop offset="0.07" stop-color="#d6e375"/><stop offset="0.1" stop-color="#d1e068"/><stop offset="0.16" stop-color="#d1df62"/><stop offset="0.3" stop-color="#d0df5f"/><stop offset="0.41" stop-color="#cedd5f"/><stop offset="0.47" stop-color="#c9d558"/><stop offset="0.51" stop-color="#c0c74d"/><stop offset="0.56" stop-color="#b2b443"/><stop offset="0.59" stop-color="#a49e35"/><stop offset="0.59" stop-color="#a49d35"/><stop offset="1" stop-color="#4f5224"/></linearGradient><clipPath id="clip-path-4"><path class="cls-1" d="M22.29,48.77V63.35h7.64a46.12,46.12,0,0,1,8.12-21Z"/></clipPath><linearGradient id="linear-gradient-4" x1="32.66" y1="133.46" x2="48.17" y2="133.46" gradientTransform="matrix(1, 0, 0, -1, 0, 186.28)" gradientUnits="userSpaceOnUse"><stop offset="0" stop-color="#6dac44"/><stop offset="0.02" stop-color="#6dac44"/><stop offset="0.23" stop-color="#5dab46"/><stop offset="0.33" stop-color="#49a547"/><stop offset="0.78" stop-color="#399043"/><stop offset="1" stop-color="#2d793c"/></linearGradient><clipPath id="clip-path-5"><path class="cls-1" d="M109.31,47.81c4.91,7.38,18,23.43,18,23.43s-3.21-9,8.89-21.82a26.13,26.13,0,0,1,28.18-6.1c-4.43-4.18-14.31-6.42-24.49-6.42-12.84,0-26.71,3.53-30.56,11"/></clipPath><linearGradient id="linear-gradient-5" x1="17.06" y1="72.73" x2="-10.56" y2="72.73" gradientTransform="matrix(0.07, -1, -1, -0.07, 207.37, 87.5)" gradientUnits="userSpaceOnUse"><stop offset="0" stop-color="#cfb831"/><stop offset="0.09" stop-color="#d0c12f"/><stop offset="0.32" stop-color="#d6d82a"/><stop offset="0.47" stop-color="#d7e02f"/><stop offset="0.56" stop-color="#d4db2a"/><stop offset="0.66" stop-color="#c5cc2e"/><stop offset="0.77" stop-color="#b2b435"/><stop offset="0.9" stop-color="#949135"/><stop offset="1" stop-color="#766d2c"/></linearGradient><clipPath id="clip-path-6"><path class="cls-1" d="M61.64,31.12c-7.31.48-21.18,3.21-26,9.63a40.67,40.67,0,0,0-6,22.11c-.32,10.34,1.54,19.91,5.78,26,7.51,10.91,20.86,19.64,41.41,16.69A65.26,65.26,0,0,0,104.08,94.8c-10,5.65-35.31,4.18-46.7-3.85-10-6.93-16.25-32.1-2.57-44.52C73.49,29.61,102.7,40,102.7,40A54.93,54.93,0,0,0,71.11,30.7H61.58"/></clipPath><linearGradient id="linear-gradient-6" x1="-343.83" y1="2812.22" x2="-343.54" y2="2812.22" gradientTransform="matrix(313.35, 139.53, 132.57, -297.71, -265062.91, 885237.79)" gradientUnits="userSpaceOnUse"><stop offset="0" stop-color="#86b340"/><stop offset="0.09" stop-color="#79b042"/><stop offset="0.13" stop-color="#6dac44"/><stop offset="0.37" stop-color="#5dab46"/><stop offset="0.48" stop-color="#49a547"/><stop offset="0.83" stop-color="#399043"/><stop offset="1" stop-color="#2d793c"/></linearGradient><clipPath id="clip-path-7"><path class="cls-1" d="M60.87,42.35s19.68-6.22,31.46,8.54,7.06,24.53,20.22,37.56c11.24,11.1,29.21,20.73,48.15,19.26a37.88,37.88,0,0,0,31.59-21.8,56.9,56.9,0,0,1-22.47,8.35,37,37,0,0,1-19.55-2.18c-20.8-7.9-26-30.76-37.75-44.75a34.88,34.88,0,0,0-27.35-12,48.19,48.19,0,0,0-24.23,6.74"/></clipPath><linearGradient id="linear-gradient-7" x1="70.46" y1="113.96" x2="199.49" y2="113.96" gradientTransform="matrix(1, 0, 0, -1, 0, 186.28)" gradientUnits="userSpaceOnUse"><stop offset="0" stop-color="#41b1a6"/><stop offset="0.41" stop-color="#41b1a6"/><stop offset="0.57" stop-color="#137082"/><stop offset="0.93" stop-color="#033855"/><stop offset="1" stop-color="#012d46"/></linearGradient><clipPath id="clip-path-8"><path class="cls-1" d="M60.3,42.55S79.56,36.86,88,53.72C95.29,68.55,96.54,79,109.06,93.2c11.23,12.84,32.74,16.24,51.55,14.67-27.13-.87-40-15.31-53.29-46.26-6.93-16.24-20.22-22.47-32.1-22.47a30.85,30.85,0,0,0-14.86,3.69"/></clipPath><linearGradient id="linear-gradient-8" x1="76.53" y1="113.18" x2="175.16" y2="113.18" gradientTransform="matrix(1, 0, 0, -1, 0, 186.28)" gradientUnits="userSpaceOnUse"><stop offset="0" stop-color="#bbe3dc"/><stop offset="0.14" stop-color="#92d4ce"/><stop offset="0.36" stop-color="#70c9c1"/><stop offset="0.61" stop-color="#4eafa8"/><stop offset="1" stop-color="#369d93"/></linearGradient></defs><title>Asset 1</title><g id="Layer_2" data-name="Layer 2"><g id="Layer_1-2" data-name="Layer 1"><path class="cls-2" d="M32.07,144.75a1.35,1.35,0,0,0,.45,1,1.37,1.37,0,0,0,1,.45h3.32v6.66H30.43a4.06,4.06,0,0,1-1.74-.46,6.42,6.42,0,0,1-2.84-3.22,5.7,5.7,0,0,1-.31-2.32V125.76a1.2,1.2,0,0,0-.39-.89,1.07,1.07,0,0,0-.85-.45H22.17v-5.69h5.49a3.8,3.8,0,0,1,1.75.43,4.48,4.48,0,0,1,1.36,1.09,5.94,5.94,0,0,1,.83,1.42,4.66,4.66,0,0,1,.28,1.43Zm28.68.68a10.61,10.61,0,0,1-4.6,6.39,11.27,11.27,0,0,1-3.21,1.37,15.92,15.92,0,0,1-3.3.4,16.26,16.26,0,0,1-4.94-.79,9.23,9.23,0,0,1-4-2.3A11.15,11.15,0,0,1,38,146.24a21.31,21.31,0,0,1-.83-8.51,13.21,13.21,0,0,1,.54-2.66A14.18,14.18,0,0,1,39,132.19a9.38,9.38,0,0,1,2.13-2.6,11.45,11.45,0,0,1,3.34-1.91,13.64,13.64,0,0,1,4.73-.73,15.85,15.85,0,0,1,3.94.53A9.24,9.24,0,0,1,57,129.61a11.85,11.85,0,0,1,2.94,4.26,18.12,18.12,0,0,1,1.15,7V142H43.72a12.72,12.72,0,0,0,.21,1.74,6.44,6.44,0,0,0,.79,2.13,5.06,5.06,0,0,0,1.75,1.75,6.55,6.55,0,0,0,3.17.68,5.44,5.44,0,0,0,2.62-.68,3.27,3.27,0,0,0,1.64-2.13Zm-6.53-7.75a7.15,7.15,0,0,0-.68-2.53,5.23,5.23,0,0,0-1.24-1.64,4,4,0,0,0-1.58-.89,6,6,0,0,0-1.74-.26,4.51,4.51,0,0,0-3.62,1.41,6.78,6.78,0,0,0-1.56,3.91Zm10.28-3a1.68,1.68,0,0,0-.38-1,1.26,1.26,0,0,0-.9-.46H61.73v-5.69h6.18a2,2,0,0,1,1.08.32,3.11,3.11,0,0,1,1,.77,4,4,0,0,1,.68,1,2.94,2.94,0,0,1,.28,1.13v.85a13.79,13.79,0,0,1,.85-1.38,8.71,8.71,0,0,1,1.49-1.6A8.28,8.28,0,0,1,78.6,127a10.13,10.13,0,0,1,3.49.56,7.66,7.66,0,0,1,2.79,1.61,7.91,7.91,0,0,1,1.85,2.62,8.71,8.71,0,0,1,.68,3.67v10.37a1.55,1.55,0,0,0,.39.93,1.13,1.13,0,0,0,.87.49h1.6v5.64H84.9a3,3,0,0,1-1.55-.46,5.12,5.12,0,0,1-1.28-1.13,5.9,5.9,0,0,1-.94-1.56,4.34,4.34,0,0,1-.36-1.74v-12a3.93,3.93,0,0,0-.49-1.6A3.45,3.45,0,0,0,79,133a4.82,4.82,0,0,0-2.32-.53A5.14,5.14,0,0,0,72.89,134a6,6,0,0,0-1.49,4.26v9.81a4,4,0,0,1-.36,1.64,6.17,6.17,0,0,1-.94,1.51,5.77,5.77,0,0,1-1.36,1.15,3.12,3.12,0,0,1-1.51.45H61.9v-5.66h1.56a1.16,1.16,0,0,0,.89-.43,1.37,1.37,0,0,0,.41-.91Z"/><path class="cls-2" d="M106.58,136.21v-1.66a2.14,2.14,0,0,0-1-1.85,5.51,5.51,0,0,0-3.32-.77,8.54,8.54,0,0,0-2.13.24,3.52,3.52,0,0,0-1.21.6,1.33,1.33,0,0,0-.55.78,2.43,2.43,0,0,0,0,.85,1.63,1.63,0,0,0,1.15,1.52,15.59,15.59,0,0,0,2.91.91l3.84.79a15.32,15.32,0,0,1,3.83,1.24A8.36,8.36,0,0,1,113,141a5.77,5.77,0,0,1,1.15,3.71,8.06,8.06,0,0,1-1.15,4.47,8.17,8.17,0,0,1-2.9,2.64,11.64,11.64,0,0,1-3.62,1.26,20.28,20.28,0,0,1-3.38.34,26.28,26.28,0,0,1-4.07-.32A13.86,13.86,0,0,1,95.21,152a8,8,0,0,1-2.88-2.13,4.94,4.94,0,0,1-1.13-3.32v-2.28h7.07v2.35c0,.68.49,1.15,1.45,1.42a13.6,13.6,0,0,0,3.6.43,7,7,0,0,0,2.13-.28,3.85,3.85,0,0,0,1.27-.66,2.26,2.26,0,0,0,.64-.83,1.85,1.85,0,0,0,.2-.83,1.77,1.77,0,0,0-1.18-1.6,13.87,13.87,0,0,0-2.89-.91l-3.77-.79A19.26,19.26,0,0,1,96,141.37,8.44,8.44,0,0,1,93,139.24a5.65,5.65,0,0,1-1.34-3.94,9.89,9.89,0,0,1,.47-2.9,7.14,7.14,0,0,1,1.66-2.72,9.29,9.29,0,0,1,3.15-2,12.51,12.51,0,0,1,4.92-.81,28,28,0,0,1,3.77.25,11.39,11.39,0,0,1,3.64,1.07,7.53,7.53,0,0,1,2.77,2.27,6.67,6.67,0,0,1,1.09,3.9v1.75Zm25.42,1.2,5.83,9.83h2.9V153h-4.26a4.24,4.24,0,0,1-1.75-.38,5.49,5.49,0,0,1-1.53-.94,10.31,10.31,0,0,1-1.19-1.45,11.61,11.61,0,0,1-1-1.51L127.12,142l-2.72,2.88v3.49a3.69,3.69,0,0,1-.39,1.53,6,6,0,0,1-1,1.43,5.55,5.55,0,0,1-1.35,1.06,3,3,0,0,1-1.49.39H115v-5.6h1.55a1.28,1.28,0,0,0,.89-.39,1.17,1.17,0,0,0,.39-.85V125.63a1.15,1.15,0,0,0-.39-.83,1.41,1.41,0,0,0-.85-.38H115v-5.69h4.79a3.92,3.92,0,0,1,1.74.43,6.42,6.42,0,0,1,1.49,1.09,5.82,5.82,0,0,1,1.09,1.51,3.21,3.21,0,0,1,.42,1.74v13.72l4.65-5.54,1.19-1.38a10.43,10.43,0,0,1,1.25-1.32,6.86,6.86,0,0,1,1.45-1,3.86,3.86,0,0,1,1.66-.4H139v5.69h-2.85Zm34.71,8.51a1.12,1.12,0,0,0,.36.83,1,1,0,0,0,.79.41h1.74v5.71h-5.66a3.29,3.29,0,0,1-1.07-.26,4,4,0,0,1-1.1-.66,3.08,3.08,0,0,1-.81-1,2.48,2.48,0,0,1-.34-1.3V149a8.51,8.51,0,0,1-3.26,3.34,9.4,9.4,0,0,1-4.66,1.22,13.93,13.93,0,0,1-4.75-.79,10.13,10.13,0,0,1-3.84-2.43,11.44,11.44,0,0,1-2.53-4.15,17.15,17.15,0,0,1-.94-5.94,15.09,15.09,0,0,1,1.07-5.9,11.47,11.47,0,0,1,7-6.58,14.36,14.36,0,0,1,4.9-.81,9,9,0,0,1,2,.22,12.73,12.73,0,0,1,2,.68,9.87,9.87,0,0,1,1.75,1,7,7,0,0,1,1.34,1.26v-2.3h6.07Zm-7-5.74a12.73,12.73,0,0,0-.26-2.54,6.92,6.92,0,0,0-.87-2.49,5.32,5.32,0,0,0-1.85-1.92,6.86,6.86,0,0,0-6.24,0,5.11,5.11,0,0,0-1.83,1.92,7.94,7.94,0,0,0-.87,2.49,16.7,16.7,0,0,0-.26,2.54,17.35,17.35,0,0,0,.26,2.59,7.77,7.77,0,0,0,.87,2.49,4.93,4.93,0,0,0,1.83,1.88,7,7,0,0,0,6.24,0,5.06,5.06,0,0,0,1.85-1.88,7.32,7.32,0,0,0,.87-2.49,13.23,13.23,0,0,0,.26-2.59m12.56-5.63a1.36,1.36,0,0,0-.38-.89,1.31,1.31,0,0,0-.87-.4h-1.62v-5.69h5.07a4,4,0,0,1,1.4.28,4.74,4.74,0,0,1,1.32.78,4,4,0,0,1,1,1.15,2.32,2.32,0,0,1,.38,1.3v.85l1.11-1.85a7,7,0,0,1,1.39-1.59,6.2,6.2,0,0,1,1.85-1.18,7.15,7.15,0,0,1,2.6-.4h1.27v6.9a4.61,4.61,0,0,0-.91,0h-1a7.44,7.44,0,0,0-3.13.53,4.82,4.82,0,0,0-1.85,1.43,4.67,4.67,0,0,0-.9,1.94,8.91,8.91,0,0,0-.25,2.12v13.1h-6.65Zm25.09-7h4.13v4.75h-4.13v12.35a2,2,0,0,0,1.15,1.53,3.29,3.29,0,0,0,1.55.28h1.28v6.66h-4.26a5.68,5.68,0,0,1-4.58-2.13,9,9,0,0,1-1.75-6.07V132.3h-3.55v-4.75h3.49v-8.84h6.67Z"/><g class="cls-3"><path class="cls-4" d="M179.42,46.13l20.89-9.74L211.1,59.52l-20.89,9.74Z"/></g><g class="cls-5"><path class="cls-6" d="M17.06,33.81,189.85,0l20.59,105.22L37.65,139Z"/></g><g class="cls-7"><path class="cls-8" d="M38.66,70.72,98.83,35.88l33.86,58.48L72.52,129.19Z"/></g><g class="cls-9"><path class="cls-10" d="M22.29,42.42H38v20.8H22.29Z"/></g><g class="cls-11"><path class="cls-12" d="M106.9,70.93l2.68-38.29,57.16,4-2.68,38.3Z"/></g><g class="cls-13"><path class="cls-14" d="M0,95.65,41.65,2.11l91.61,40.78L91.61,136.44Z"/></g><g class="cls-15"><path class="cls-16" d="M60.87,35.52H192v73.6H60.87Z"/></g><g class="cls-17"><path class="cls-18" d="M60.3,36.83H160.51v72.55H60.3Z"/></g><rect class="cls-1" x="13.67" y="24.14" width="198" height="136"/></g></g></svg>